<?xml version="1.0" standalone="no"?><!DOCTYPE svg PUBLIC "-//W3C//DTD SVG 1.1//EN" "http://www.w3.org/Graphics/SVG/1.1/DTD/svg11.dtd"><svg t="1592666739832" class="icon" viewBox="0 0 1024 1024" version="1.1" xmlns="http://www.w3.org/2000/svg" p-id="5728" xmlns:xlink="http://www.w3.org/1999/xlink" width="200" height="200"><defs><style type="text/css"></style></defs><path d="M904 120H120c-30.9 0-56 25.1-56 56v560c0 30.9 25.1 56 56 56h280v56h-84c-15.5 0-28 12.5-28 28s12.5 28 28 28h392c15.5 0 28-12.5 28-28s-12.5-28-28-28h-84v-56h280c30.9 0 56-25.1 56-56V176c0-30.9-25.1-56-56-56zM568 848H456v-56h112v56z m336-112H120v-56h784v56zM120 624V176h784v448H120z" p-id="5729" fill="#24262f"></path></svg>